<?xml version="1.0" standalone="no"?>
<!DOCTYPE svg PUBLIC "-//W3C//DTD SVG 20010904//EN"
 "http://www.w3.org/TR/2001/REC-SVG-20010904/DTD/svg10.dtd">
<svg version="1.0" xmlns="http://www.w3.org/2000/svg"
 width="800.000000pt" height="800.000000pt" viewBox="0 0 800.000000 800.000000"
 preserveAspectRatio="xMidYMid meet">

<g transform="translate(0.000000,800.000000) scale(0.100000,-0.100000)"
fill="#000000" stroke="none">
<path d="M4330 7090 c0 -5 5 -10 11 -10 5 0 7 5 4 10 -3 6 -8 10 -11 10 -2 0
-4 -4 -4 -10z"/>
<path d="M4075 7044 c-8 -12 -35 -16 -135 -19 -69 -2 -143 -9 -165 -15 -22 -6
-49 -12 -60 -14 -11 -2 -22 -5 -25 -6 -3 -1 -9 -3 -15 -4 -20 -2 -65 -38 -59
-47 3 -5 -1 -9 -9 -9 -7 0 -24 -11 -37 -25 -13 -14 -29 -25 -35 -25 -7 0 -27
-15 -46 -32 -19 -18 -46 -39 -62 -47 -26 -14 -86 -81 -72 -81 4 0 -15 -17 -42
-39 -73 -59 -259 -243 -274 -272 -8 -15 -30 -51 -49 -80 -58 -88 -121 -208
-125 -239 -2 -16 -15 -55 -29 -87 -67 -155 -131 -530 -126 -743 1 -58 2 -121
1 -140 -2 -98 1 -143 15 -175 17 -42 28 -46 20 -7 -6 23 -2 29 22 40 16 7 37
10 46 6 17 -7 22 -24 6 -24 -19 0 -60 -79 -60 -115 0 -20 11 -61 24 -93 12
-31 26 -66 31 -77 6 -17 10 -12 21 26 17 58 41 82 48 47 13 -61 13 -82 0 -107
-22 -42 -18 -107 8 -125 12 -9 30 -16 40 -16 10 0 18 -5 18 -11 0 -6 7 -9 15
-5 16 6 19 -28 18 -214 0 -47 2 -77 4 -67 3 11 11 16 19 13 14 -6 19 5 7 17
-10 11 -3 705 8 777 6 35 24 128 40 205 20 92 33 191 39 290 5 83 14 173 20
200 6 28 14 68 17 90 3 22 10 45 15 52 5 7 7 17 3 23 -3 5 -3 16 2 23 4 6 8
30 9 52 1 22 9 53 18 70 10 19 12 33 6 39 -12 12 -13 39 -2 32 4 -2 7 12 6 32
-2 46 21 98 52 119 13 8 22 19 19 23 -3 5 7 8 23 8 32 -1 178 68 262 123 30
20 70 40 88 44 18 4 62 20 98 36 35 16 67 28 71 27 5 0 24 6 44 15 35 16 69
24 132 32 22 3 27 0 23 -13 -7 -22 41 -47 59 -32 9 8 15 6 19 -6 4 -12 13 -14
32 -10 17 5 23 3 19 -4 -3 -5 -13 -10 -21 -10 -8 0 -14 -4 -14 -10 0 -13 2
-13 36 5 17 9 30 11 32 5 4 -12 -17 -34 -42 -43 -10 -4 -16 -10 -13 -14 4 -3
20 0 36 7 16 6 35 9 40 5 6 -3 11 -2 11 3 0 14 38 22 44 8 3 -7 9 -5 16 7 12
18 46 22 69 8 7 -5 10 -14 6 -21 -6 -9 -9 -9 -16 1 -5 8 -9 9 -9 3 0 -6 8 -20
18 -31 17 -20 65 -25 89 -10 7 5 9 0 6 -13 -3 -11 -9 -23 -14 -26 -15 -9 -10
-22 9 -27 16 -4 16 -5 0 -6 -10 0 -18 -8 -18 -16 0 -8 -5 -15 -10 -15 -6 0
-10 -6 -9 -12 1 -7 -3 -26 -10 -42 -9 -23 -9 -31 0 -37 10 -6 10 -11 1 -22 -7
-7 -9 -17 -5 -21 4 -4 1 -11 -7 -17 -13 -8 -13 -11 3 -23 9 -7 17 -16 17 -19
0 -3 -8 -8 -17 -10 -11 -3 -7 -5 10 -6 23 -1 27 -5 25 -28 -1 -16 4 -38 10
-50 7 -12 8 -24 3 -27 -5 -3 -11 -19 -13 -35 -2 -17 -1 -28 3 -25 4 2 10 -9
14 -26 4 -16 11 -30 15 -30 5 0 7 7 4 15 -9 22 5 38 22 24 11 -9 14 -8 14 7 0
14 3 15 8 6 7 -9 16 -10 41 -1 26 9 35 9 41 0 5 -9 9 -9 13 3 4 9 1 16 -6 16
-18 1 35 29 56 30 9 0 17 6 17 13 0 9 19 12 65 12 67 0 73 -3 53 -23 -9 -9 -6
-12 15 -12 15 0 27 -4 27 -10 0 -5 -4 -10 -10 -10 -5 0 -10 -7 -10 -15 0 -8 6
-15 14 -15 9 0 12 -7 9 -18 -3 -13 4 -22 23 -31 21 -9 24 -15 15 -21 -8 -4
-11 -12 -8 -16 3 -5 -24 -9 -60 -9 -51 0 -66 4 -74 18 -6 9 -16 17 -23 17 -8
0 -19 7 -26 15 -10 12 -16 13 -26 4 -21 -17 -17 -28 9 -21 21 5 22 5 4 -15
-12 -14 -15 -23 -8 -28 19 -11 12 -28 -8 -22 -22 5 -37 -18 -18 -27 7 -3 2 -3
-10 -1 -12 3 -24 1 -28 -5 -3 -6 -11 -7 -17 -4 -6 4 -13 2 -17 -4 -3 -6 -19
-13 -35 -16 -16 -3 -37 -14 -48 -26 -10 -11 -28 -20 -38 -20 -11 0 -20 -7 -20
-15 0 -8 -13 -21 -30 -30 -16 -9 -30 -12 -30 -8 0 4 -7 -3 -16 -15 -8 -12 -21
-22 -28 -22 -16 0 -42 -97 -41 -150 0 -19 -4 -38 -9 -42 -6 -4 -5 -12 2 -20 9
-11 8 -20 -5 -38 -12 -17 -17 -43 -16 -82 1 -50 -1 -58 -17 -58 -36 0 -33 -30
4 -43 12 -5 15 -11 9 -20 -5 -6 -10 -37 -11 -67 -2 -38 -8 -59 -20 -68 -10 -8
-13 -16 -7 -20 13 -9 15 -48 5 -97 -5 -21 -5 -44 0 -50 4 -5 8 -21 8 -35 0
-14 0 -52 0 -85 1 -33 1 -70 2 -82 0 -13 -14 -48 -31 -79 -27 -51 -29 -58 -15
-73 9 -10 16 -22 16 -27 0 -17 -39 -44 -55 -38 -8 4 -22 1 -29 -5 -10 -8 -16
-9 -21 -1 -3 5 -11 10 -16 10 -6 0 -8 -4 -5 -9 3 -4 -6 -7 -19 -5 -14 1 -25
-2 -25 -6 0 -5 -10 -18 -22 -29 -15 -14 -25 -18 -33 -11 -13 11 -19 5 -46 -45
-9 -16 -14 -36 -11 -44 3 -10 0 -12 -11 -8 -9 3 -21 -1 -29 -10 -11 -14 -10
-16 9 -11 17 5 23 1 25 -16 2 -13 9 -20 18 -17 37 9 125 8 146 -1 31 -14 31
-34 -1 -42 -14 -4 -25 -11 -25 -16 0 -6 -12 -15 -27 -21 -16 -7 -23 -13 -15
-16 6 -3 12 -13 12 -24 0 -25 -30 -25 -60 1 -13 12 -30 18 -38 15 -7 -3 -18
-5 -23 -5 -19 0 -8 -19 14 -23 12 -2 -3 -5 -33 -7 -54 -2 -55 -2 -20 -12 19
-5 39 -14 45 -19 5 -5 16 -9 25 -9 18 0 60 -42 60 -60 0 -7 14 -26 31 -42 24
-24 30 -36 27 -59 -3 -17 -1 -32 4 -35 13 -8 10 -25 -4 -23 -7 0 -23 -2 -35
-6 -26 -8 -31 -35 -8 -35 22 0 18 -26 -11 -75 -24 -42 -25 -73 -2 -59 7 5 9 1
5 -9 -4 -11 -1 -17 9 -17 8 0 12 -4 9 -10 -3 -5 -23 -10 -43 -10 -20 0 -44 -5
-52 -11 -13 -9 -13 -10 1 -6 30 10 39 -6 22 -41 -8 -17 -20 -29 -25 -26 -5 3
-6 -5 -3 -18 4 -17 -2 -28 -22 -42 -28 -20 -28 -20 -10 0 18 22 24 49 7 39 -6
-4 -7 1 -3 11 5 14 3 16 -13 9 -10 -4 -26 -8 -35 -9 -10 0 -15 -6 -11 -14 5
-15 -17 -34 -30 -25 -5 2 -6 13 -3 24 8 26 -16 25 -40 -1 -18 -20 -18 -20 -32
0 -14 20 -15 20 -33 -2 -23 -29 -17 -37 10 -13 20 18 20 17 20 -7 0 -13 -11
-35 -25 -48 -14 -13 -25 -29 -25 -36 0 -6 -9 -14 -20 -17 -11 -3 -20 -1 -20 4
0 5 6 9 13 9 8 0 7 4 -3 11 -10 7 -11 12 -4 15 6 3 20 12 30 20 18 14 18 15
-3 9 -19 -5 -22 -3 -16 11 5 12 3 15 -6 9 -8 -4 -17 -2 -22 6 -14 22 -11 26
24 39 19 7 27 14 18 17 -7 3 -32 -5 -55 -17 l-41 -23 24 27 c20 22 22 28 11
39 -9 8 -11 8 -6 0 3 -6 2 -14 -4 -18 -5 -3 -10 -1 -10 6 0 7 -9 3 -20 -9 -21
-23 -36 -30 -25 -12 9 15 -4 12 -21 -5 -20 -20 -33 -19 -30 3 2 9 12 17 24 18
31 2 54 13 47 23 -3 5 3 12 14 16 11 3 36 19 56 35 21 17 44 30 52 30 8 0 11
5 8 10 -8 13 -55 2 -80 -20 -23 -20 -55 -33 -55 -22 0 4 9 13 20 20 11 7 20
17 20 23 0 5 -4 7 -10 4 -5 -3 -10 1 -10 10 0 9 4 13 10 10 6 -4 7 2 1 18 -8
21 -6 26 15 37 13 8 24 17 24 22 0 5 -12 0 -26 -11 -15 -12 -32 -21 -38 -21
-6 0 -22 -12 -35 -25 -13 -14 -27 -25 -32 -25 -5 0 -9 -7 -9 -15 0 -17 -18
-19 -40 -5 -10 6 -22 5 -35 -4 -15 -9 -29 -10 -57 -2 l-37 11 25 24 c20 19 23
20 18 5 -4 -11 -4 -16 0 -12 7 5 13 26 15 51 1 4 8 7 17 7 8 0 12 5 9 10 -3 6
2 10 13 10 10 0 19 7 19 15 0 11 -4 12 -14 4 -7 -6 -13 -8 -13 -3 -1 5 -18
-11 -40 -36 -29 -32 -38 -38 -33 -22 4 18 2 21 -11 16 -9 -3 -16 -11 -16 -17
0 -6 -3 -8 -6 -5 -3 4 0 16 6 28 11 20 10 21 -19 17 -24 -4 -29 -2 -24 11 3
10 13 25 20 34 14 16 10 59 -5 58 -13 -1 -51 -70 -46 -83 3 -8 -2 -14 -11 -14
-15 0 -20 15 -17 50 2 16 -8 21 -35 18 -7 -1 -15 14 -19 34 -3 19 -10 33 -14
30 -4 -3 -13 10 -20 28 -24 65 -43 107 -47 104 -7 -8 81 -214 106 -246 14 -18
31 -40 36 -48 17 -26 54 -61 58 -56 3 2 4 -4 4 -14 -1 -11 5 -18 18 -18 13 0
21 -8 23 -22 2 -13 7 -23 12 -23 5 0 12 -9 15 -21 4 -11 13 -18 20 -15 9 3 11
-2 8 -15 -5 -16 -1 -20 13 -17 13 2 18 -2 16 -14 -1 -9 6 -19 18 -23 11 -4 18
-11 15 -16 -4 -5 1 -9 11 -9 14 0 15 -2 3 -17 -13 -14 -11 -16 13 -11 20 4 25
2 20 -10 -4 -10 -1 -13 7 -8 8 5 12 3 10 -5 -4 -36 1 -47 23 -41 14 3 19 2 14
-6 -4 -7 -2 -12 4 -12 6 0 9 -4 6 -9 -3 -5 1 -14 9 -21 8 -7 13 -16 10 -20 -3
-4 2 -11 10 -14 9 -3 20 -17 25 -32 8 -19 15 -24 27 -19 10 3 15 3 11 0 -7 -7
53 -71 64 -68 4 2 15 -7 25 -20 10 -13 30 -23 47 -24 17 0 35 -9 42 -18 7 -9
28 -17 48 -18 20 -1 36 -5 36 -10 0 -4 18 -4 40 -1 32 5 40 3 40 -9 0 -8 -6
-17 -14 -20 -19 -8 -9 -45 12 -46 48 -3 58 -6 58 -23 0 -10 -5 -18 -10 -18 -5
0 5 -11 22 -24 29 -21 30 -25 15 -31 -15 -6 -14 -9 12 -21 l30 -13 -42 -1
c-23 0 -45 5 -48 10 -3 5 -11 10 -16 10 -22 0 23 -32 58 -42 33 -9 35 -12 20
-23 -23 -16 -22 -35 2 -35 31 0 51 -11 44 -24 -4 -8 -2 -8 7 1 7 6 19 9 26 6
8 -3 14 0 14 7 0 7 8 10 20 7 11 -3 20 -1 20 4 0 5 7 9 16 9 8 0 12 -4 9 -10
-3 -5 3 -10 14 -10 42 0 20 -15 -25 -18 -56 -3 -68 -9 -52 -26 23 -22 47 -26
57 -9 8 15 11 15 25 3 12 -9 14 -16 7 -23 -7 -7 -6 -16 6 -29 13 -15 14 -22 4
-41 -7 -13 -11 -27 -10 -33 4 -18 -21 -64 -35 -64 -9 0 -13 -6 -10 -14 6 -17
-31 -40 -48 -30 -7 4 -2 13 13 25 l24 19 -26 0 c-15 0 -32 -7 -39 -15 -7 -9
-8 -15 -2 -15 17 0 23 -49 12 -110 -7 -36 -7 -73 -2 -98 6 -23 6 -46 0 -56 -7
-13 -4 -16 13 -16 12 0 19 -3 16 -7 -4 -3 -2 -12 4 -20 9 -10 8 -13 -2 -13
-10 0 -10 -3 -1 -12 17 -17 15 -45 -3 -52 -8 -3 -15 -14 -15 -24 0 -48 -74
-59 -152 -24 -60 26 -158 110 -222 190 -29 38 -73 86 -97 108 -294 268 -396
401 -421 547 -10 56 -14 64 -21 45 -26 -70 -48 -350 -29 -362 6 -3 8 -15 5
-26 -3 -12 0 -20 6 -20 7 0 11 6 10 13 -3 26 1 47 11 47 6 0 10 -7 10 -16 0
-8 4 -13 9 -10 10 7 30 -62 35 -124 4 -51 14 -80 27 -80 4 0 6 -7 3 -15 -4 -8
-1 -15 5 -15 7 0 34 -46 61 -102 40 -82 47 -105 37 -117 -10 -12 -9 -14 4 -9
34 13 60 -86 76 -282 l6 -76 -39 -26 c-22 -14 -59 -44 -84 -66 -45 -40 -55
-61 -75 -167 -7 -38 40 -123 89 -160 35 -27 52 -58 60 -112 2 -17 7 -36 10
-42 8 -13 -14 -112 -24 -106 -4 3 -10 17 -13 32 -4 16 -10 48 -15 73 -10 50
-35 102 -57 120 -8 7 -12 16 -9 21 3 5 0 9 -5 9 -19 0 -51 39 -45 55 3 8 -3
30 -15 48 -12 19 -21 41 -21 50 0 8 -7 17 -14 20 -8 3 -18 22 -21 41 -4 19
-14 41 -22 48 -23 18 -62 115 -58 139 3 12 -4 34 -14 48 -17 23 -36 78 -108
305 -11 35 -16 97 -17 230 -2 297 2 331 42 406 37 69 72 123 77 118 2 -2 -12
-61 -31 -133 -32 -124 -44 -195 -22 -130 5 17 17 46 26 65 15 34 40 153 41
198 1 17 -5 22 -23 22 -14 0 -28 -4 -31 -10 -3 -5 -23 -17 -43 -27 -20 -9 -50
-27 -67 -38 -16 -12 -52 -33 -80 -45 -27 -13 -54 -29 -60 -35 -10 -12 -49 -36
-150 -90 -54 -30 -231 -95 -256 -95 -6 0 -43 -16 -83 -35 -40 -19 -80 -35 -88
-35 -16 0 -238 -100 -260 -117 -70 -54 -329 -183 -558 -278 -199 -83 -415
-210 -444 -262 -5 -9 -18 -27 -30 -41 -60 -71 -114 -133 -166 -188 -38 -41
-73 -94 -103 -155 -59 -120 -97 -207 -97 -220 0 -5 -7 -24 -16 -42 -9 -17 -23
-56 -30 -87 -7 -30 -26 -109 -43 -175 -17 -66 -34 -136 -37 -155 -3 -19 -10
-52 -15 -72 -5 -20 -9 -40 -8 -45 2 -4 -1 -24 -4 -43 -4 -19 -12 -96 -17 -170
-6 -74 -12 -148 -14 -165 -2 -16 -7 -61 -11 -100 -4 -38 -9 -82 -10 -98 l-4
-27 3760 0 3760 0 -8 53 c-4 28 -8 67 -8 85 0 17 -3 32 -6 32 -4 0 -9 15 -12
33 -3 17 -13 66 -21 107 -9 41 -18 88 -21 105 -3 16 -12 56 -20 90 -13 53 -22
97 -65 300 -6 28 -15 75 -21 105 -6 30 -15 69 -19 85 -5 17 -19 73 -31 125
-19 83 -78 235 -109 280 -6 8 -23 35 -38 59 -74 119 -220 257 -395 374 -111
74 -715 379 -887 447 -190 76 -563 268 -666 343 -36 26 -96 64 -133 83 -36 19
-81 46 -100 59 -19 14 -38 25 -42 25 -14 0 -11 -34 6 -74 30 -71 38 -237 20
-431 -6 -71 -16 -139 -23 -151 -6 -11 -14 -45 -17 -75 -3 -30 -11 -74 -17 -99
-11 -42 -12 -43 -19 -18 -4 16 -1 44 8 70 11 33 12 51 4 85 -15 57 -13 73 4
43 8 -14 14 -20 15 -15 0 6 -7 21 -16 33 -20 29 -20 63 0 141 17 68 34 100 21
43 -4 -21 -2 -38 5 -47 16 -19 30 -19 30 1 0 8 -4 12 -10 9 -7 -4 -7 3 0 20
13 34 13 70 0 40 -7 -17 -9 -17 -9 -2 -1 9 -5 17 -11 17 -6 0 -10 69 -10 188
0 182 -1 189 -29 262 -29 77 -70 170 -74 170 -2 0 5 -57 14 -127 9 -71 15
-129 14 -131 -1 -2 -7 11 -13 27 -6 17 -18 31 -26 31 -9 0 -18 12 -22 28 -3
15 -7 32 -9 39 -5 14 17 63 28 63 19 0 4 19 -23 29 -25 8 -30 15 -30 44 0 24
7 39 20 48 20 14 20 14 -8 69 -15 30 -38 59 -49 65 -34 15 -48 84 -46 219 1
138 15 195 54 238 16 16 29 33 29 36 0 3 11 19 24 37 73 95 114 216 127 374
11 124 19 151 50 151 70 0 133 68 149 161 20 112 30 152 41 166 7 7 12 35 13
62 0 27 4 45 7 39 4 -5 9 2 13 16 3 14 11 26 17 26 8 0 8 4 1 13 -6 6 -12 39
-15 72 -3 33 -8 69 -13 79 -6 15 -4 18 8 14 11 -5 15 1 15 20 0 15 8 52 16 82
9 30 16 86 16 125 0 38 0 81 0 95 2 95 -1 160 -7 190 -4 19 -4 66 0 105 4 38
6 76 3 83 -2 6 3 12 12 12 14 0 15 11 9 87 -4 48 -11 90 -15 93 -11 7 -41 66
-41 79 0 24 29 -4 39 -37 10 -35 10 -34 7 20 -1 31 -9 64 -16 73 -7 9 -14 27
-15 39 0 13 -13 40 -28 60 -15 20 -27 42 -25 48 1 7 -3 23 -10 36 -7 12 -10
22 -6 22 4 0 0 8 -8 18 -8 9 -21 33 -28 52 -7 19 -19 42 -27 51 -7 8 -13 19
-13 23 0 4 -20 38 -45 76 -25 38 -45 72 -45 75 0 7 -39 63 -58 84 -7 7 -10 21
-7 30 15 37 8 48 -32 62 -21 7 -59 11 -85 10 -39 -2 -52 2 -70 22 -13 13 -38
32 -55 41 -18 9 -33 21 -33 26 0 6 -9 10 -19 10 -18 0 -97 78 -130 130 -9 14
-24 34 -34 45 -18 20 -18 20 -12 -7 4 -16 5 -28 2 -28 -10 0 -67 65 -67 76 0
6 -13 17 -30 24 -16 7 -30 17 -30 22 0 5 -6 8 -12 6 -7 -3 -20 5 -30 16 -11
13 -17 16 -18 8 0 -7 -5 -10 -10 -7 -6 4 -8 10 -6 14 3 4 1 13 -5 21 -6 10 -9
11 -9 3 0 -18 -35 -16 -50 3 -8 8 -22 20 -33 26 -19 10 -19 9 1 -17 28 -35 19
-49 -19 -30 -16 9 -33 14 -38 11 -4 -3 -18 6 -31 19 -24 26 -43 25 -33 -1 4
-12 0 -14 -23 -8 -16 3 -40 13 -53 21 -22 14 -24 14 -18 -1 8 -21 -15 -31 -41
-17 -12 6 -22 7 -24 2 -3 -8 -37 1 -88 23 -9 3 -19 -1 -25 -10z m293 -19 c-3
-3 -9 2 -12 12 -6 14 -5 15 5 6 7 -7 10 -15 7 -18z m173 -52 c13 -16 12 -17
-3 -4 -10 7 -18 15 -18 17 0 8 8 3 21 -13z m-411 -453 c0 -5 -7 -7 -15 -4 -8
4 -15 8 -15 10 0 2 7 4 15 4 8 0 15 -4 15 -10z m617 -136 c-3 -3 -12 -4 -19
-1 -8 3 -5 6 6 6 11 1 17 -2 13 -5z m69 -31 c-10 -10 -19 5 -10 18 6 11 8 11
12 0 2 -7 1 -15 -2 -18z m-146 -18 c0 -8 -4 -15 -10 -15 -5 0 -10 7 -10 15 0
8 5 15 10 15 6 0 10 -7 10 -15z m55 -14 c-8 -25 -18 -27 -35 -6 -12 15 -4 20
23 16 4 0 7 4 7 11 0 6 3 9 6 5 3 -3 3 -15 -1 -26z m-85 -21 c0 -20 -23 -43
-33 -33 -11 10 -8 43 4 43 5 0 7 4 4 10 -3 6 1 7 9 4 9 -3 16 -14 16 -24z
m125 20 c-3 -5 -12 -10 -18 -10 -7 0 -6 4 3 10 19 12 23 12 15 0z m120 -29
c10 -33 -24 -95 -43 -76 -4 3 1 11 10 16 10 5 15 16 12 24 -4 8 -1 15 5 15 6
0 11 5 11 10 0 6 -9 10 -21 10 -11 0 -17 5 -14 10 10 16 33 11 40 -9z m-115
-12 c0 -11 -27 -12 -34 0 -3 4 -3 11 0 14 8 8 34 -3 34 -14z m-50 -9 c0 -13
-11 -13 -30 0 -12 8 -11 10 8 10 12 0 22 -4 22 -10z m107 -26 c-3 -3 -12 -4
-19 -1 -8 3 -5 6 6 6 11 1 17 -2 13 -5z m-427 -24 c0 -5 -8 -10 -17 -10 -15 0
-16 2 -3 10 19 12 20 12 20 0z m180 -85 c0 -8 -4 -15 -10 -15 -5 0 -10 7 -10
15 0 8 5 15 10 15 6 0 10 -7 10 -15z m948 -181 c-4 -3 -12 5 -18 18 -12 22
-12 22 6 6 10 -10 15 -20 12 -24z m-1093 -14 c3 -5 -1 -10 -10 -10 -9 0 -13 5
-10 10 3 6 8 10 10 10 2 0 7 -4 10 -10z m460 -139 c-6 -5 -25 10 -25 20 0 5 6
4 14 -3 8 -7 12 -15 11 -17z m-2136 -814 c1 -5 -3 -5 -9 -2 -5 3 -10 16 -9 28
0 21 1 21 9 2 5 -11 9 -24 9 -28z m108 -139 c-3 -8 -6 -5 -6 6 -1 11 2 17 5
13 3 -3 4 -12 1 -19z m2076 -193 c-3 -9 -8 -14 -10 -11 -3 3 -2 9 2 15 9 16
15 13 8 -4z m-966 -370 c-2 -41 -5 -43 -16 -13 -5 13 -4 27 3 35 16 18 16 17
13 -22z m-747 -515 c0 -5 -5 -10 -11 -10 -5 0 -7 5 -4 10 3 6 8 10 11 10 2 0
4 -4 4 -10z m230 -181 c20 1 22 -1 10 -9 -12 -8 -12 -10 5 -10 18 -1 17 -2 -5
-15 -27 -16 -54 -20 -30 -5 26 16 -1 25 -63 22 -18 -1 -27 -7 -24 -14 2 -7 17
-12 33 -11 27 3 28 2 6 -7 -16 -7 -29 -6 -41 2 -18 11 -18 13 -3 36 13 21 21
23 51 17 20 -4 47 -6 61 -6z m490 -39 c0 -5 -4 -10 -10 -10 -5 0 -10 5 -10 10
0 6 5 10 10 10 6 0 10 -4 10 -10z m-520 -50 c0 -5 -4 -10 -10 -10 -5 0 -10 5
-10 10 0 6 5 10 10 10 6 0 10 -4 10 -10z m312 -66 c-5 -27 -16 -36 -35 -28
-15 5 -15 8 0 30 18 28 40 27 35 -2z m135 -26 c-3 -7 -5 -2 -5 12 0 14 2 19 5
13 2 -7 2 -19 0 -25z m-44 -18 c-15 -17 -29 -26 -31 -20 -5 15 26 42 56 49 2
1 -9 -13 -25 -29z m-61 -30 c-4 -11 -8 -8 -12 10 -4 14 -5 29 -2 34 8 14 20
-27 14 -44z m-232 15 c-7 -9 -15 -13 -19 -10 -3 3 1 10 9 15 21 14 24 12 10
-5z m138 7 c13 11 14 10 5 -7 -6 -11 -21 -29 -32 -39 -12 -11 -21 -24 -21 -29
0 -6 8 -3 18 6 22 19 45 0 30 -26 -11 -21 -32 -22 -24 -1 3 8 2 13 -3 9 -5 -3
-16 -2 -25 1 -14 5 -13 9 4 31 11 14 17 29 14 34 -3 5 -2 14 2 21 6 9 9 9 12
0 3 -10 7 -10 20 0z m42 -22 c-6 -11 -15 -20 -20 -20 -16 0 -11 18 8 29 24 14
24 14 12 -9z m104 -22 c-5 -7 -8 -22 -7 -33 1 -16 1 -17 -3 -2 -3 9 -10 15
-15 12 -15 -10 -10 7 8 27 18 20 30 17 17 -4z m133 -316 c-10 -10 -15 -21 -12
-24 3 -2 -2 -5 -10 -5 -8 0 -11 5 -8 11 13 23 26 36 36 36 5 0 3 -8 -6 -18z
m1230 -364 c-2 -13 -4 -3 -4 22 0 25 2 35 4 23 2 -13 2 -33 0 -45z m-20 -10
c-3 -8 -6 -5 -6 6 -1 11 2 17 5 13 3 -3 4 -12 1 -19z m29 -71 c-4 -18 -9 -72
-12 -122 -3 -49 -7 -114 -10 -144 l-6 -54 -15 32 c-14 28 -14 40 -2 99 7 37
12 107 11 155 -3 87 -2 88 19 77 17 -10 20 -18 15 -43z m176 -153 c-6 -35 -12
-29 -12 14 0 23 3 32 9 24 4 -7 6 -24 3 -38z m-272 -59 c0 -8 -9 -20 -20 -27
-12 -8 -20 -24 -20 -39 0 -15 -7 -43 -16 -64 -8 -20 -17 -51 -18 -69 -6 -60
-18 -111 -31 -132 -8 -12 -19 -57 -25 -102 -15 -97 -29 -123 -59 -104 -34 20
-38 13 -7 -12 31 -25 28 -51 -5 -43 -10 3 -22 0 -26 -5 -4 -7 -1 -8 7 -3 10 6
12 4 7 -8 -8 -20 4 -22 22 -4 11 10 12 8 8 -8 -3 -11 -8 -32 -11 -47 -4 -16
-11 -28 -16 -28 -6 0 -8 12 -5 28 6 24 5 25 -6 8 -9 -15 -8 -24 5 -46 20 -35
21 -46 1 -30 -9 7 -18 10 -22 6 -3 -3 0 -6 7 -6 7 0 11 -3 7 -6 -3 -4 0 -13 8
-21 8 -8 15 -23 15 -33 0 -10 3 -25 6 -34 3 -8 -27 17 -66 55 l-72 71 7 45 c4
25 10 53 15 62 4 9 22 50 39 91 30 72 31 74 7 45 -49 -59 -24 -8 34 70 33 44
65 96 71 115 6 19 19 44 29 55 27 33 70 127 73 165 2 19 7 43 11 53 10 21 46
23 46 2z m40 -111 c0 -19 -4 -33 -8 -30 -8 5 -4 66 4 66 2 0 4 -16 4 -36z
m-23 -86 c-3 -8 -6 -5 -6 6 -1 11 2 17 5 13 3 -3 4 -12 1 -19z m107 -42 c7
-60 1 -86 -19 -86 -7 0 -15 -3 -18 -7 -2 -5 -2 -1 0 7 2 8 7 43 10 77 3 35 9
63 13 63 4 0 10 -24 14 -54z m-106 -50 c17 -29 18 -41 10 -87 -14 -85 -16 -87
-43 -54 -30 37 -31 31 -4 -24 20 -42 20 -45 4 -120 -21 -93 -25 -100 -40 -72
-13 26 -25 16 -43 -34 -22 -62 0 88 28 190 15 55 33 127 40 160 18 88 20 89
48 41z m65 -91 c-3 -9 -8 -14 -10 -11 -3 3 -2 9 2 15 9 16 15 13 8 -4z m-37
-131 c-15 -28 -15 -30 18 -62 l33 -34 -22 -54 c-12 -30 -24 -57 -27 -59 -2 -3
-17 8 -32 24 l-28 29 26 94 c34 118 38 128 43 107 2 -8 -3 -28 -11 -45z
m-1581 -44 c9 -16 13 -30 11 -30 -3 0 -12 14 -21 30 -9 17 -13 30 -11 30 3 0
12 -13 21 -30z m44 -108 c6 -22 25 -55 41 -72 54 -57 87 -104 110 -153 19 -41
21 -50 9 -58 -13 -8 -6 -13 14 -10 4 0 7 -4 7 -9 0 -5 -7 -10 -15 -10 -38 0
46 -101 87 -106 34 -4 34 -4 21 -12 -8 -5 -6 -17 6 -43 13 -26 15 -42 9 -54
-10 -17 -4 -99 12 -165 17 -70 22 -130 10 -130 -6 0 -29 17 -53 39 -23 21 -47
36 -53 34 -17 -6 -27 59 -12 69 9 5 7 8 -7 8 -17 0 -17 2 -5 10 9 6 10 10 3
10 -7 0 -17 17 -22 38 -12 42 -15 133 -3 116 4 -6 17 -13 30 -17 20 -5 22 -3
16 16 -4 12 -7 32 -6 43 1 12 -7 29 -18 39 -24 22 -26 13 -4 -20 24 -37 1 -30
-35 10 -30 34 -33 72 -5 61 8 -3 11 0 7 10 -7 18 -17 18 -33 -1 -7 -8 -16 -15
-21 -15 -24 0 -119 132 -119 165 0 7 11 18 25 25 32 17 44 7 95 -79 26 -43 40
-59 40 -45 0 26 -37 78 -117 163 -67 70 -71 84 -57 173 5 30 9 35 19 24 8 -7
18 -31 24 -54z m1107 21 c-23 -42 -36 -59 -36 -48 0 12 38 75 45 75 3 0 -1
-12 -9 -27z m-43 -100 c-4 -27 -20 -53 -54 -90 -27 -28 -49 -57 -49 -63 0 -7
-13 -29 -28 -49 -15 -20 -40 -56 -56 -80 -24 -38 -25 -41 -7 -29 12 9 39 31
60 51 21 20 42 33 45 30 7 -7 -136 -142 -170 -161 -13 -7 -24 -19 -24 -27 0
-24 -87 -108 -104 -102 -9 4 -16 2 -16 -4 0 -6 -5 -7 -11 -4 -7 5 -4 14 7 26
17 18 16 20 -2 34 -10 8 -27 13 -36 11 -10 -2 -18 -2 -18 0 0 8 100 54 117 54
23 0 146 132 185 200 17 30 54 82 81 115 27 33 57 75 65 92 9 18 17 33 18 33
2 0 0 -17 -3 -37z m405 -23 c4 0 15 -7 25 -14 17 -13 17 -17 -13 -76 l-31 -62
-27 23 c-15 13 -28 24 -30 25 -1 0 12 32 30 70 20 43 33 63 36 52 2 -10 7 -18
10 -18z m-101 -12 c-3 -8 -6 -5 -6 6 -1 11 2 17 5 13 3 -3 4 -12 1 -19z m-3
-98 c-3 -8 -12 -37 -20 -64 -7 -27 -17 -53 -22 -58 -11 -11 -25 52 -17 74 3 8
1 28 -5 44 -9 27 -9 28 5 10 14 -19 15 -18 26 14 11 31 13 32 26 14 7 -10 11
-25 7 -34z m-354 -24 c0 -3 -4 -8 -10 -11 -5 -3 -10 -1 -10 4 0 6 5 11 10 11
6 0 10 -2 10 -4z m-60 -66 c0 -5 -5 -10 -11 -10 -5 0 -7 5 -4 10 3 6 8 10 11
10 2 0 4 -4 4 -10z m304 -109 c-14 -23 -29 -41 -31 -41 -3 0 1 10 9 23 8 12
20 33 27 45 7 13 15 21 18 19 2 -3 -8 -24 -23 -46z m-994 15 c0 -3 -4 -8 -10
-11 -5 -3 -10 -1 -10 4 0 6 5 11 10 11 6 0 10 -2 10 -4z m1047 -115 c-20 -23
-37 -36 -37 -30 0 6 -6 9 -14 6 -21 -8 -25 13 -9 57 23 67 32 72 66 37 l30
-30 -36 -40z m-1570 -6 c9 -25 -4 -29 -17 -6 -7 15 -7 21 0 21 6 0 13 -7 17
-15z m1448 -60 c-28 -69 -28 -100 0 -46 8 17 18 31 21 31 9 0 -6 -141 -18
-163 -10 -20 -11 -20 -21 -1 -21 37 -27 115 -12 138 8 11 15 29 15 39 0 20 31
79 38 73 2 -2 -9 -34 -23 -71z m-872 -5 c3 -11 3 -20 1 -20 -2 0 -8 9 -14 20
-6 11 -7 20 -2 20 6 0 12 -9 15 -20z m244 4 c-3 -3 -12 -4 -19 -1 -8 3 -5 6 6
6 11 1 17 -2 13 -5z m-123 -43 c16 -17 16 -22 3 -48 -8 -15 -18 -43 -22 -60
-3 -18 -10 -33 -14 -33 -9 0 -26 57 -36 118 -7 41 -6 42 23 42 16 0 37 -9 46
-19z m871 -11 c8 -25 -2 -43 -18 -33 -7 4 -16 8 -22 8 -5 0 -11 8 -13 19 -2
11 0 16 6 12 6 -3 13 -2 17 4 10 16 23 12 30 -10z m-1363 -25 c28 -7 31 -14
41 -102 6 -56 -18 -39 -84 59 l-41 59 29 -4 c15 -3 40 -8 55 -12z m1170 -97
c-6 -68 -18 -98 -37 -98 -12 0 -15 -10 -13 -44 1 -48 -16 -78 -83 -144 -32
-31 -34 -32 -37 -12 -7 42 19 158 39 176 13 12 16 20 8 25 -7 4 -9 21 -4 49 5
30 10 38 16 29 5 -8 9 -9 9 -3 0 21 60 74 84 74 22 0 23 -3 18 -52z m-302 -6
c0 -10 -7 -39 -16 -64 -16 -48 -45 -68 -100 -68 -28 0 -28 -6 -8 81 l16 69 54
0 c46 0 54 -3 54 -18z m-180 -9 c-1 -10 -7 -29 -15 -43 -8 -14 -14 -38 -15
-54 0 -28 -1 -29 -46 -22 -26 3 -53 6 -62 6 -17 0 -12 36 12 94 15 35 16 36
70 36 47 0 56 -3 56 -17z m-399 -180 c-12 -20 -14 -14 -5 12 4 9 9 14 11 11 3
-2 0 -13 -6 -23z m287 11 c13 -4 22 -14 22 -25 0 -11 7 -19 15 -19 19 0 19 -4
0 -39 -13 -27 -32 -40 -63 -47 -37 -7 -15 -20 25 -15 7 1 10 -4 8 -11 -5 -13
-115 -22 -115 -10 0 3 12 43 26 89 28 86 32 90 82 77z m207 -90 c-7 -36 -15
-67 -17 -70 -3 -2 -30 1 -62 7 -51 11 -55 13 -42 28 7 9 23 34 35 56 12 22 21
34 21 27 0 -10 5 -9 22 2 12 9 30 16 39 16 14 0 15 -7 4 -66z m-198 -160 c-3
-3 -12 -4 -19 -1 -8 3 -5 6 6 6 11 1 17 -2 13 -5z m-41 -111 c-10 -10 -19 5
-10 18 6 11 8 11 12 0 2 -7 1 -15 -2 -18z m28 -19 c3 -9 6 -18 6 -20 0 -9 -22
-3 -36 10 -11 11 -11 16 -1 19 20 9 25 8 31 -9z"/>
<path d="M4853 1728 c-6 -7 -13 -23 -16 -36 -4 -19 -3 -21 9 -11 7 6 11 16 8
21 -4 6 0 14 7 19 7 4 11 11 8 14 -4 3 -11 0 -16 -7z"/>
<path d="M4807 1648 c-8 -5 -8 -8 2 -8 8 0 23 -8 34 -17 18 -16 20 -16 14 -2
-3 9 -1 21 5 27 12 12 -37 12 -55 0z"/>
<path d="M3836 1093 c-3 -4 -6 -21 -6 -40 0 -29 3 -33 25 -33 14 0 25 5 25 11
0 6 -8 8 -17 5 -17 -6 -17 -5 0 8 9 7 17 17 17 22 0 12 -36 34 -44 27z"/>
<path d="M4313 1163 c-7 -3 -13 -12 -13 -21 0 -15 2 -15 17 1 18 18 16 27 -4
20z"/>
<path d="M4900 1211 c0 -6 -10 -16 -22 -21 -16 -6 -18 -9 -7 -9 19 -1 45 26
35 36 -3 3 -6 1 -6 -6z"/>
<path d="M4380 6331 c0 -5 -8 -12 -17 -14 -14 -4 -13 -5 4 -6 24 -1 39 14 23
24 -5 3 -10 2 -10 -4z"/>
<path d="M4336 6001 c-14 -5 -16 -10 -8 -15 7 -4 17 -4 22 -1 6 4 18 1 26 -6
8 -6 18 -9 22 -5 4 4 -2 14 -12 22 -22 16 -23 16 -50 5z"/>
<path d="M4646 5961 c-4 -5 -5 -15 -3 -23 2 -7 2 -10 0 -5 -7 11 -23 8 -23 -4
0 -6 6 -17 14 -24 18 -18 36 0 36 37 0 27 -13 37 -24 19z"/>
<path d="M4687 5954 c-8 -8 3 -34 14 -34 11 0 12 27 0 34 -4 3 -11 3 -14 0z"/>
<path d="M4580 5880 c0 -5 5 -10 10 -10 6 0 10 5 10 10 0 6 -4 10 -10 10 -5 0
-10 -4 -10 -10z"/>
<path d="M4556 5771 c-4 -7 -5 -15 -2 -18 9 -9 19 4 14 18 -4 11 -6 11 -12 0z"/>
<path d="M3690 5748 c0 -5 -4 -7 -8 -4 -5 3 -21 -2 -36 -10 -16 -7 -46 -14
-68 -14 -21 0 -37 -4 -34 -9 6 -10 -76 -27 -112 -23 -30 4 -99 -38 -81 -48 8
-5 -6 -16 -39 -30 -52 -23 -142 -108 -142 -136 0 -8 -9 -31 -20 -51 -25 -47
-27 -85 -4 -76 11 4 12 8 4 13 -7 4 -2 13 15 24 14 9 23 21 20 26 -3 5 4 11
15 15 11 3 20 12 20 20 0 7 8 16 18 18 15 4 14 5 -2 6 -20 1 -20 1 0 16 10 8
31 15 46 15 15 0 31 8 37 17 8 15 22 18 75 16 36 -1 68 2 71 7 3 4 15 6 27 2
14 -3 19 -2 14 6 -4 7 -13 12 -21 12 -8 0 -17 5 -21 11 -4 7 5 10 27 8 60 -4
91 0 84 12 -4 6 11 1 34 -10 39 -21 64 -23 88 -8 15 10 65 11 122 3 25 -4 49
-2 56 4 17 14 38 9 47 -10 4 -9 7 -2 7 18 1 17 6 32 11 32 6 0 10 8 11 18 0
14 2 14 9 -3 12 -27 12 -43 0 -25 -8 13 -10 12 -10 -2 0 -10 4 -18 9 -18 14 0
61 48 61 62 -1 31 -54 69 -64 45 -2 -7 -5 -5 -5 4 -1 22 -25 31 -40 16 -10 -9
-15 -8 -26 6 -15 21 -39 27 -127 32 -39 2 -68 -1 -68 -7z m110 -8 c0 -5 -2
-10 -4 -10 -3 0 -8 5 -11 10 -3 6 -1 10 4 10 6 0 11 -4 11 -10z m90 -43 c0 -6
-9 -2 -20 8 -11 10 -20 23 -20 28 0 6 9 2 20 -8 11 -10 20 -23 20 -28z"/>
<path d="M3735 5500 c-11 -5 -37 -9 -57 -9 -30 -1 -38 -5 -38 -19 0 -13 -14
-21 -47 -31 -27 -7 -73 -21 -103 -31 l-55 -19 61 6 c59 5 61 5 66 -20 4 -22 0
-26 -36 -37 -43 -12 -189 -105 -221 -140 -10 -12 -20 -30 -22 -40 -2 -17 1
-18 23 -10 34 13 160 13 186 -1 15 -8 18 -8 14 0 -5 7 -1 9 8 5 9 -3 16 -12
16 -20 0 -8 7 -14 15 -14 8 0 15 -7 15 -15 0 -7 7 -18 16 -23 15 -8 15 -11 0
-34 -9 -13 -13 -28 -9 -31 11 -12 146 -7 188 6 22 6 56 24 76 40 20 15 40 27
46 27 19 0 52 46 59 84 4 22 17 55 30 74 30 44 30 53 -3 110 -33 57 -81 102
-109 102 -12 0 -24 7 -28 15 -3 8 -14 15 -25 15 -11 0 -23 5 -26 10 -7 12 -13
12 -40 0z m-265 -252 c0 -13 7 -32 15 -42 23 -30 18 -35 -22 -24 -54 15 -55
15 -30 53 26 40 37 44 37 13z m50 -3 c0 -8 -9 -15 -20 -15 -11 0 -20 7 -20 15
0 8 9 15 20 15 11 0 20 -7 20 -15z"/>
<path d="M3374 5361 c-18 -11 -35 -25 -39 -32 -9 -13 -3 -10 54 28 41 28 29
31 -15 4z"/>
<path d="M3902 4544 c-38 -26 -27 -37 30 -30 54 8 82 22 72 37 -9 15 -78 10
-102 -7z"/>
<path d="M3467 4385 c-53 -54 -96 -159 -70 -170 9 -3 22 0 31 7 11 10 16 10
19 2 2 -7 13 -10 23 -7 28 7 25 -12 -5 -31 -14 -9 -23 -21 -20 -26 3 -5 -3
-11 -12 -15 -10 -3 -26 -17 -37 -31 -18 -25 -18 -25 3 -15 61 31 59 31 63 7 5
-27 -8 -49 -37 -60 l-20 -8 20 -8 c11 -4 24 -4 29 0 18 17 35 -1 26 -26 -9
-22 -8 -24 10 -14 15 8 18 8 14 -4 -3 -7 -15 -18 -27 -24 -21 -10 -21 -11 4
-11 18 -1 32 7 43 24 9 14 13 25 9 25 -5 0 3 6 17 13 14 7 25 21 25 31 0 33
28 41 81 23 45 -15 50 -15 67 0 11 11 35 16 70 16 43 -1 48 0 28 8 -14 6 -50
10 -80 10 -79 0 -108 7 -114 29 -4 14 -11 17 -28 13 -18 -5 -21 -3 -16 10 3 9
2 19 -4 23 -6 4 -6 11 2 20 14 17 5 18 -24 2 -20 -10 -21 -10 -8 5 7 10 25 17
40 17 29 0 68 19 41 20 -11 1 -10 4 5 16 16 12 17 17 7 23 -8 5 -13 11 -12 15
5 21 -7 28 -28 17 -12 -7 -44 -11 -70 -11 -26 1 -58 -1 -72 -5 l-25 -7 22 20
c12 11 19 23 15 26 -4 4 2 15 14 24 23 20 48 72 34 72 -5 0 -29 -20 -53 -45z
m63 -112 c-1 -20 -16 -31 -30 -22 -13 8 -13 10 0 19 18 12 30 13 30 3z m-85
-13 c-9 -14 8 -13 23 2 8 8 12 8 12 1 0 -13 -28 -25 -41 -17 -9 5 -3 24 7 24
3 0 2 -4 -1 -10z"/>
<path d="M3875 4337 c-4 -10 -5 -21 -1 -24 10 -10 18 4 13 24 -4 17 -4 17 -12
0z"/>
<path d="M3823 4328 c4 -10 2 -18 -2 -18 -5 0 -7 -9 -4 -21 5 -18 7 -19 21 -6
13 13 12 18 -3 39 -11 14 -15 17 -12 6z"/>
<path d="M3700 4290 c-9 -6 -10 -10 -3 -10 6 0 15 5 18 10 8 12 4 12 -15 0z"/>
<path d="M3731 4276 c-13 -7 -19 -16 -14 -19 11 -7 51 18 43 26 -3 3 -16 0
-29 -7z"/>
<path d="M3792 4244 c10 -10 20 -15 24 -12 3 4 -5 12 -18 18 -22 12 -22 12 -6
-6z"/>
<path d="M3765 4230 c-3 -5 -1 -10 4 -10 6 0 11 5 11 10 0 6 -2 10 -4 10 -3 0
-8 -4 -11 -10z"/>
<path d="M3385 4189 c-10 -15 3 -25 16 -12 7 7 7 13 1 17 -6 3 -14 1 -17 -5z"/>
<path d="M2992 4135 c0 -16 5 -48 13 -70 l13 -40 0 35 c0 19 -6 51 -13 70
l-13 35 0 -30z"/>
<path d="M3431 4077 c-13 -21 -12 -21 5 -5 10 10 16 20 13 22 -3 3 -11 -5 -18
-17z"/>
<path d="M3430 3979 c0 -5 5 -7 10 -4 6 3 10 8 10 11 0 2 -4 4 -10 4 -5 0 -10
-5 -10 -11z"/>
<path d="M3292 3890 c0 -14 2 -19 5 -12 2 6 2 18 0 25 -3 6 -5 1 -5 -13z"/>
<path d="M3462 3854 c-7 -8 -8 -14 -3 -14 10 0 25 19 20 25 -2 1 -10 -3 -17
-11z"/>
<path d="M3320 3829 c0 -5 5 -7 10 -4 6 3 10 8 10 11 0 2 -4 4 -10 4 -5 0 -10
-5 -10 -11z"/>
<path d="M3410 3799 c0 -5 5 -7 10 -4 6 3 10 8 10 11 0 2 -4 4 -10 4 -5 0 -10
-5 -10 -11z"/>
<path d="M3422 3775 l-23 -23 21 -15 c20 -14 20 -15 1 -38 -15 -19 -21 -21
-33 -11 -14 11 -28 7 -28 -9 0 -10 39 -19 56 -12 8 3 14 10 14 16 0 6 8 19 17
29 13 15 15 23 6 37 -7 11 -8 23 -1 34 13 24 -3 19 -30 -8z"/>
<path d="M3486 3745 c-24 -25 -19 -39 6 -15 12 11 19 22 16 25 -3 3 -13 -1
-22 -10z"/>
<path d="M3290 3720 c-13 -8 -13 -10 2 -10 9 0 20 5 23 10 8 13 -5 13 -25 0z"/>
<path d="M3480 3703 c-8 -2 -21 -7 -29 -9 -10 -3 -10 -8 -2 -18 6 -7 7 -17 3
-21 -4 -5 -1 -5 6 -1 6 4 12 13 12 21 0 7 12 18 28 23 27 10 11 15 -18 5z"/>
<path d="M3560 3659 c0 -11 4 -19 8 -19 5 0 17 8 26 19 16 18 16 19 -9 19 -18
0 -25 -6 -25 -19z"/>
<path d="M3784 3565 c-18 -13 -16 -14 24 -15 23 0 42 5 42 11 0 5 -4 8 -9 4
-5 -3 -12 -1 -16 5 -8 14 -18 13 -41 -5z"/>
<path d="M3588 3559 c-20 -11 -13 -40 7 -33 13 6 28 44 17 44 -4 0 -15 -5 -24
-11z"/>
<path d="M3720 3515 c-7 -9 -8 -15 -2 -15 5 0 12 7 16 15 3 8 4 15 2 15 -2 0
-9 -7 -16 -15z"/>
<path d="M3870 3520 c0 -5 5 -10 11 -10 5 0 7 5 4 10 -3 6 -8 10 -11 10 -2 0
-4 -4 -4 -10z"/>
<path d="M3660 3095 c7 -9 15 -13 17 -11 7 7 -7 26 -19 26 -6 0 -6 -6 2 -15z"/>
<path d="M3710 3060 c20 -13 33 -13 25 0 -3 6 -14 10 -23 10 -15 0 -15 -2 -2
-10z"/>
<path d="M3736 3028 c3 -4 9 -8 15 -8 5 0 9 4 9 8 0 5 -7 9 -15 9 -8 0 -12 -4
-9 -9z"/>
<path d="M3868 3032 c-10 -2 -18 -8 -18 -13 0 -11 11 -11 30 1 18 11 11 18
-12 12z"/>
<path d="M4094 2689 c-4 -7 -22 -9 -45 -6 -22 3 -39 3 -39 1 0 -3 11 -15 25
-28 14 -13 25 -28 25 -33 0 -5 11 -15 25 -21 21 -10 27 -9 32 4 3 8 -3 21 -13
30 -18 13 -17 14 9 8 17 -4 27 -2 27 5 0 6 -9 11 -20 11 -22 0 -28 25 -7 33 9
4 9 6 0 6 -6 1 -15 -4 -19 -10z m-21 -33 c4 -10 1 -13 -9 -9 -7 3 -14 9 -14
14 0 14 17 10 23 -5z"/>
<path d="M3075 2521 c-4 -17 -13 -45 -22 -61 -11 -23 -12 -37 -5 -58 6 -15 11
-20 11 -11 1 9 8 22 16 29 8 7 14 24 13 39 -1 14 1 35 5 46 4 11 3 26 -2 34
-7 10 -11 5 -16 -18z"/>
<path d="M3178 2473 c-7 -26 23 -223 34 -223 11 0 10 30 -3 131 -12 93 -23
124 -31 92z"/>
<path d="M3220 2468 c0 -7 5 -20 10 -28 8 -12 10 -11 10 7 0 12 -4 25 -10 28
-5 3 -10 0 -10 -7z"/>
<path d="M5281 2414 c0 -11 3 -14 6 -6 3 7 2 16 -1 19 -3 4 -6 -2 -5 -13z"/>
<path d="M3096 2372 c-4 -7 -5 -24 -2 -37 4 -14 1 -33 -5 -43 -9 -14 -6 -30
15 -77 l26 -60 -7 75 c-9 112 -17 157 -27 142z"/>
<path d="M3066 2353 c-6 -14 -5 -15 5 -6 7 7 10 15 7 18 -3 3 -9 -2 -12 -12z"/>
<path d="M3290 2300 c0 -5 5 -10 11 -10 5 0 7 5 4 10 -3 6 -8 10 -11 10 -2 0
-4 -4 -4 -10z"/>
<path d="M3216 2186 c2 -16 4 -34 4 -40 0 -6 4 -4 10 4 5 8 5 19 1 25 -5 5
-11 17 -14 25 -2 8 -3 2 -1 -14z"/>
<path d="M3016 2125 c5 -39 73 -179 82 -170 3 2 -9 33 -26 67 -18 35 -38 81
-47 103 l-15 40 6 -40z"/>
<path d="M3225 2121 c-6 -11 -3 -31 19 -138 8 -37 12 -71 9 -76 -2 -4 0 -38 6
-75 5 -37 13 -88 16 -114 6 -50 19 -62 28 -28 3 11 2 20 -1 20 -4 0 -7 46 -8
102 0 63 -4 103 -11 105 -6 2 -8 13 -5 25 3 14 1 19 -6 14 -8 -5 -10 2 -6 23
4 18 2 37 -5 44 -6 8 -8 16 -5 20 3 3 3 24 -1 46 -7 40 -18 51 -30 32z"/>
<path d="M3150 1849 c0 -18 33 -82 37 -71 3 7 -5 27 -16 45 -11 17 -21 29 -21
26z"/>
</g>
</svg>
